<mxfile host="app.diagrams.net" agent="Mozilla/5.0 (Windows NT 10.0; Win64; x64) AppleWebKit/537.36 (KHTML, like Gecko) Chrome/133.0.0.0 Safari/537.36" version="26.1.0">
  <diagram name="Σελίδα-1" id="0JJ2JEffgrGLWTJLnre1">
    <mxGraphModel dx="1674" dy="746" grid="1" gridSize="10" guides="1" tooltips="1" connect="1" arrows="1" fold="1" page="1" pageScale="1" pageWidth="827" pageHeight="1169" math="0" shadow="0">
      <root>
        <mxCell id="0" />
        <mxCell id="1" parent="0" />
        <mxCell id="ypOiB7ghJIlv_MFIv7FI-4" value="" style="edgeStyle=orthogonalEdgeStyle;rounded=0;orthogonalLoop=1;jettySize=auto;html=1;" parent="1" source="ypOiB7ghJIlv_MFIv7FI-1" target="ypOiB7ghJIlv_MFIv7FI-3" edge="1">
          <mxGeometry relative="1" as="geometry" />
        </mxCell>
        <mxCell id="ypOiB7ghJIlv_MFIv7FI-6" value="" style="edgeStyle=orthogonalEdgeStyle;rounded=0;orthogonalLoop=1;jettySize=auto;html=1;" parent="1" source="ypOiB7ghJIlv_MFIv7FI-1" target="ypOiB7ghJIlv_MFIv7FI-5" edge="1">
          <mxGeometry relative="1" as="geometry" />
        </mxCell>
        <mxCell id="ypOiB7ghJIlv_MFIv7FI-1" value="Initialize parameters" style="rounded=0;whiteSpace=wrap;html=1;fillColor=#d5e8d4;strokeColor=#82b366;" parent="1" vertex="1">
          <mxGeometry x="354" y="100" width="120" height="60" as="geometry" />
        </mxCell>
        <mxCell id="ypOiB7ghJIlv_MFIv7FI-2" value="&lt;font style=&quot;font-size: 20px;&quot;&gt;&lt;b&gt;Maxpooling&lt;/b&gt;&lt;/font&gt;" style="text;html=1;align=center;verticalAlign=middle;resizable=0;points=[];autosize=1;strokeColor=none;fillColor=none;" parent="1" vertex="1">
          <mxGeometry x="349" y="23" width="130" height="40" as="geometry" />
        </mxCell>
        <mxCell id="ypOiB7ghJIlv_MFIv7FI-22" value="" style="edgeStyle=orthogonalEdgeStyle;rounded=0;orthogonalLoop=1;jettySize=auto;html=1;" parent="1" source="ypOiB7ghJIlv_MFIv7FI-3" target="ypOiB7ghJIlv_MFIv7FI-16" edge="1">
          <mxGeometry relative="1" as="geometry" />
        </mxCell>
        <mxCell id="ypOiB7ghJIlv_MFIv7FI-28" style="edgeStyle=orthogonalEdgeStyle;rounded=0;orthogonalLoop=1;jettySize=auto;html=1;exitX=1;exitY=1;exitDx=0;exitDy=0;entryX=0;entryY=0.5;entryDx=0;entryDy=0;" parent="1" source="ypOiB7ghJIlv_MFIv7FI-3" target="ypOiB7ghJIlv_MFIv7FI-20" edge="1">
          <mxGeometry relative="1" as="geometry">
            <Array as="points">
              <mxPoint x="580" y="300" />
            </Array>
          </mxGeometry>
        </mxCell>
        <mxCell id="ypOiB7ghJIlv_MFIv7FI-3" value="Forward pass" style="whiteSpace=wrap;html=1;fillColor=#d5e8d4;strokeColor=#82b366;rounded=0;" parent="1" vertex="1">
          <mxGeometry x="354" y="240" width="120" height="60" as="geometry" />
        </mxCell>
        <mxCell id="ypOiB7ghJIlv_MFIv7FI-8" value="" style="edgeStyle=orthogonalEdgeStyle;rounded=0;orthogonalLoop=1;jettySize=auto;html=1;" parent="1" source="ypOiB7ghJIlv_MFIv7FI-5" target="ypOiB7ghJIlv_MFIv7FI-7" edge="1">
          <mxGeometry relative="1" as="geometry" />
        </mxCell>
        <mxCell id="ypOiB7ghJIlv_MFIv7FI-5" value="Initialize kernel" style="whiteSpace=wrap;html=1;fillColor=#dae8fc;strokeColor=#6c8ebf;rounded=0;" parent="1" vertex="1">
          <mxGeometry x="554" y="100" width="120" height="60" as="geometry" />
        </mxCell>
        <mxCell id="ypOiB7ghJIlv_MFIv7FI-10" value="" style="edgeStyle=orthogonalEdgeStyle;rounded=0;orthogonalLoop=1;jettySize=auto;html=1;" parent="1" source="ypOiB7ghJIlv_MFIv7FI-7" target="ypOiB7ghJIlv_MFIv7FI-9" edge="1">
          <mxGeometry relative="1" as="geometry" />
        </mxCell>
        <mxCell id="ypOiB7ghJIlv_MFIv7FI-7" value="Initialize stride" style="whiteSpace=wrap;html=1;fillColor=#dae8fc;strokeColor=#6c8ebf;rounded=0;" parent="1" vertex="1">
          <mxGeometry x="754" y="100" width="120" height="60" as="geometry" />
        </mxCell>
        <mxCell id="ypOiB7ghJIlv_MFIv7FI-11" style="edgeStyle=orthogonalEdgeStyle;rounded=0;orthogonalLoop=1;jettySize=auto;html=1;entryX=1;entryY=0;entryDx=0;entryDy=0;exitX=0.5;exitY=1;exitDx=0;exitDy=0;" parent="1" source="ypOiB7ghJIlv_MFIv7FI-25" target="ypOiB7ghJIlv_MFIv7FI-3" edge="1">
          <mxGeometry relative="1" as="geometry">
            <Array as="points">
              <mxPoint x="1181" y="240" />
            </Array>
          </mxGeometry>
        </mxCell>
        <mxCell id="ypOiB7ghJIlv_MFIv7FI-9" value="Initialize padding" style="whiteSpace=wrap;html=1;fillColor=#dae8fc;strokeColor=#6c8ebf;rounded=0;" parent="1" vertex="1">
          <mxGeometry x="954" y="100" width="120" height="60" as="geometry" />
        </mxCell>
        <mxCell id="ypOiB7ghJIlv_MFIv7FI-24" style="edgeStyle=orthogonalEdgeStyle;rounded=0;orthogonalLoop=1;jettySize=auto;html=1;entryX=0;entryY=0.5;entryDx=0;entryDy=0;" parent="1" source="ypOiB7ghJIlv_MFIv7FI-16" target="ypOiB7ghJIlv_MFIv7FI-23" edge="1">
          <mxGeometry relative="1" as="geometry" />
        </mxCell>
        <mxCell id="ypOiB7ghJIlv_MFIv7FI-16" value="backward pass" style="whiteSpace=wrap;html=1;fillColor=#d5e8d4;strokeColor=#82b366;rounded=0;" parent="1" vertex="1">
          <mxGeometry x="354" y="370" width="120" height="60" as="geometry" />
        </mxCell>
        <mxCell id="ypOiB7ghJIlv_MFIv7FI-17" value="" style="edgeStyle=orthogonalEdgeStyle;rounded=0;orthogonalLoop=1;jettySize=auto;html=1;" parent="1" source="ypOiB7ghJIlv_MFIv7FI-18" target="ypOiB7ghJIlv_MFIv7FI-19" edge="1">
          <mxGeometry relative="1" as="geometry" />
        </mxCell>
        <mxCell id="ypOiB7ghJIlv_MFIv7FI-18" value="get max, it&#39;s index" style="whiteSpace=wrap;html=1;fillColor=#dae8fc;strokeColor=#6c8ebf;rounded=0;" parent="1" vertex="1">
          <mxGeometry x="970" y="270" width="120" height="60" as="geometry" />
        </mxCell>
        <mxCell id="ypOiB7ghJIlv_MFIv7FI-19" value="Copy to new matrix" style="whiteSpace=wrap;html=1;fillColor=#dae8fc;strokeColor=#6c8ebf;rounded=0;" parent="1" vertex="1">
          <mxGeometry x="1150" y="270" width="120" height="60" as="geometry" />
        </mxCell>
        <mxCell id="ypOiB7ghJIlv_MFIv7FI-29" value="" style="edgeStyle=orthogonalEdgeStyle;rounded=0;orthogonalLoop=1;jettySize=auto;html=1;" parent="1" source="ypOiB7ghJIlv_MFIv7FI-20" target="ypOiB7ghJIlv_MFIv7FI-26" edge="1">
          <mxGeometry relative="1" as="geometry" />
        </mxCell>
        <mxCell id="ypOiB7ghJIlv_MFIv7FI-20" value="Pad input" style="whiteSpace=wrap;html=1;fillColor=#dae8fc;strokeColor=#6c8ebf;rounded=0;" parent="1" vertex="1">
          <mxGeometry x="590" y="270" width="120" height="60" as="geometry" />
        </mxCell>
        <mxCell id="ypOiB7ghJIlv_MFIv7FI-23" value="return losses only for max value positions" style="whiteSpace=wrap;html=1;fillColor=#dae8fc;strokeColor=#6c8ebf;rounded=0;" parent="1" vertex="1">
          <mxGeometry x="580" y="370" width="120" height="60" as="geometry" />
        </mxCell>
        <mxCell id="ypOiB7ghJIlv_MFIv7FI-25" value="Initialize cache for backward pass" style="whiteSpace=wrap;html=1;fillColor=#dae8fc;strokeColor=#6c8ebf;rounded=0;" parent="1" vertex="1">
          <mxGeometry x="1121" y="100" width="120" height="60" as="geometry" />
        </mxCell>
        <mxCell id="ypOiB7ghJIlv_MFIv7FI-30" value="" style="edgeStyle=orthogonalEdgeStyle;rounded=0;orthogonalLoop=1;jettySize=auto;html=1;" parent="1" source="ypOiB7ghJIlv_MFIv7FI-26" target="ypOiB7ghJIlv_MFIv7FI-18" edge="1">
          <mxGeometry relative="1" as="geometry" />
        </mxCell>
        <mxCell id="ypOiB7ghJIlv_MFIv7FI-26" value="for every pixel" style="whiteSpace=wrap;html=1;fillColor=#dae8fc;strokeColor=#6c8ebf;rounded=0;" parent="1" vertex="1">
          <mxGeometry x="780" y="270" width="120" height="60" as="geometry" />
        </mxCell>
        <mxCell id="ypOiB7ghJIlv_MFIv7FI-31" value="forward gradients excusively to positions where the maximum values were selected in the forward pass" style="whiteSpace=wrap;html=1;fillColor=#dae8fc;strokeColor=#6c8ebf;rounded=0;" parent="1" vertex="1">
          <mxGeometry x="1060" y="420" width="120" height="110" as="geometry" />
        </mxCell>
      </root>
    </mxGraphModel>
  </diagram>
</mxfile>
